<?xml version="1.0" encoding="utf-8"?>
<!-- Generator: Adobe Illustrator 19.1.0, SVG Export Plug-In . SVG Version: 6.00 Build 0)  -->
<svg version="1.1" id="Layer_1" xmlns="http://www.w3.org/2000/svg" xmlns:xlink="http://www.w3.org/1999/xlink" x="0px" y="0px"
	 viewBox="-233.1 395.6 69.4 32.4" style="enable-background:new -233.1 395.6 69.4 32.4;" xml:space="preserve">
<path d="M-172.2,418.4c3.6,0,6.5-2.9,6.5-6.5s-2.9-6.5-6.5-6.5c-2.3,0-5.2,1-6.4,3c-0.5,0.8-0.9,2.1,0,3.9l0.5,1
	C-176.5,416.3-175.5,418.4-172.2,418.4z M-176.9,412.6l-0.5-1.1c-0.5-1-0.5-1.8,0-2.6c0.3-0.4,0.6-0.8,1.1-1.1
	c0.3,0.4,0.8,0.7,1.3,0.7c0.9,0,1.7-0.7,1.7-1.7c0-0.1,0-0.1,0-0.2c0.4-0.1,0.9-0.1,1.3-0.1c2.9,0,5.2,2.3,5.2,5.2
	c0,2.9-2.3,5.2-5.2,5.2c-1,0-1.7-0.2-2.3-0.7c0.6-0.2,1-0.8,1-1.5c0-0.9-0.7-1.7-1.7-1.7c-0.5,0-0.9,0.2-1.2,0.6
	C-176.5,413.4-176.7,413-176.9,412.6z M-163.8,411.8c0,2.9-1.6,5.7-4.1,7.2c-0.1,0-0.1,0.1-0.2,0.1l-19.3,8.8
	c-0.1,0-0.2,0.1-0.3,0.1c-0.3,0-0.5-0.1-0.6-0.4c-0.2-0.3,0-0.7,0.3-0.9l19.2-8.8c0,0,0,0,0.1,0c2.2-1.3,3.5-3.6,3.5-6.1
	c0-2.5-1.3-4.8-3.5-6.1l-19.3-8.8c-0.3-0.2-0.5-0.6-0.3-0.9c0.2-0.3,0.6-0.5,0.9-0.3l19.3,8.8C-165.4,406.1-163.8,408.9-163.8,411.8
	z M-177.3,406.1c0,0.3-0.3,0.6-0.7,0.6c0,0,0,0-0.1,0l-37-3.8c-0.4,0-0.6-0.4-0.6-0.7c0-0.4,0.4-0.6,0.7-0.6l37,3.8
	C-177.5,405.4-177.2,405.7-177.3,406.1z M-178.1,417c0.4,0,0.7,0.2,0.7,0.6c0,0.4-0.2,0.7-0.6,0.7l-37,3.8c0,0,0,0-0.1,0
	c-0.3,0-0.6-0.3-0.7-0.6c0-0.4,0.2-0.7,0.6-0.7L-178.1,417z M-181.9,414.5l-50.6,2c0,0,0,0,0,0c-0.4,0-0.7-0.3-0.7-0.6
	c0-0.4,0.3-0.7,0.6-0.7l50.6-2c0.4,0,0.7,0.3,0.7,0.6C-181.2,414.2-181.5,414.5-181.9,414.5z M-233.1,407.9c0-0.4,0.3-0.7,0.7-0.6
	l50.6,2c0.4,0,0.7,0.3,0.6,0.7c0,0.4-0.3,0.6-0.7,0.6c0,0,0,0,0,0l-50.6-2C-232.9,408.6-233.1,408.3-233.1,407.9z M-169.3,413.5
	c1.2,0,1.7-2.1,1.7-2.6c0-0.9-0.7-1.7-1.7-1.7c-0.9,0-1.7,0.7-1.7,1.7C-171,411.5-170.5,413.5-169.3,413.5z M-169.3,410.6
	c0.2,0,0.3,0.1,0.3,0.3c0,0.3-0.2,0.8-0.3,1.1c-0.2-0.3-0.3-0.8-0.3-1.1C-169.6,410.8-169.5,410.6-169.3,410.6z"/>
</svg>
