<?xml version="1.0" encoding="utf-8"?>
<!-- Generator: Adobe Illustrator 19.1.0, SVG Export Plug-In . SVG Version: 6.00 Build 0)  -->
<svg version="1.1" id="Layer_1" xmlns="http://www.w3.org/2000/svg" xmlns:xlink="http://www.w3.org/1999/xlink" x="0px" y="0px"
	 viewBox="-214.7 381.4 35.4 80" style="enable-background:new -214.7 381.4 35.4 80;" xml:space="preserve">
<g>
	<path d="M-180.3,440.2v-37.3l-3.1-7c-0.2-0.5-0.8-0.9-1.3-0.9c-0.6,0-1.1,0.3-1.3,0.9l-1.8,4c-0.4-6.6-3.1-12.9-7.6-17.8
		c-0.4-0.4-0.9-0.7-1.5-0.7s-1.1,0.2-1.5,0.7c-4.5,5-7.1,11.2-7.6,17.8l-1.8-4c-0.2-0.5-0.8-0.9-1.3-0.9s-1.1,0.3-1.3,0.9l-3.2,7
		v37.3c-0.7,1-1,2.3-1,3.5v3.1c0,0.4,0.3,0.7,0.6,0.7l0.4,0.1v4.4l-0.7,6.3c0,0.2,0,0.4,0.2,0.6s0.3,0.2,0.5,0.2h1.5l-0.1,1.5
		c0,0.2,0.1,0.4,0.2,0.5c0.1,0.1,0.3,0.2,0.5,0.2h4.8c0.2,0,0.4-0.1,0.5-0.2c0.1-0.1,0.2-0.3,0.2-0.5l-0.1-1.5h1.5
		c0.2,0,0.4-0.1,0.5-0.2c0.1-0.2,0.2-0.4,0.2-0.6l-0.7-6.3v-3l1.5,0.2v6.8c0,0.4,0.3,0.7,0.7,0.7h4.1c0.4,0,0.7-0.3,0.7-0.7v-3.8
		h1.3v3.8c0,0.4,0.3,0.7,0.7,0.7h4.1c0.4,0,0.7-0.3,0.7-0.7l0-6.8l1.5-0.2v3l-0.7,6.3c0,0.2,0,0.4,0.2,0.6c0.1,0.2,0.3,0.2,0.5,0.2
		h1.5l-0.1,1.5c0,0.2,0.1,0.4,0.2,0.5s0.3,0.2,0.5,0.2h4.8c0.2,0,0.4-0.1,0.5-0.2c0.1-0.1,0.2-0.3,0.2-0.5l-0.1-1.5h1.5
		c0.2,0,0.4-0.1,0.5-0.2c0.1-0.2,0.2-0.4,0.2-0.6l-0.7-6.3v-4.4l0.4-0.1c0.3-0.1,0.6-0.4,0.6-0.7v-3.1
		C-179.3,442.5-179.7,441.3-180.3,440.2z M-190.8,447.8v-3.3h10.1v1.8L-190.8,447.8z M-206.1,403.8v26.8c-0.9,1.7-2,3.2-3.2,4.6
		l-2.9,3.3v-34.7H-206.1z M-212,440.4l3.7-4.2c2.3-2.6,4-5.5,5.1-8.7V443h-10C-213.1,442-212.6,441.1-212,440.4z M-200.2,408.3h6.4
		c1,3.5,1.5,7.1,1.5,10.7h-9.4C-201.7,415.4-201.2,411.8-200.2,408.3z M-199.7,406.9c0.2-0.6,0.4-1.1,0.6-1.7
		c0.4-1.1,1.4-1.5,2.2-1.5c0.8,0,1.7,0.4,2.2,1.5c0.2,0.5,0.4,1.1,0.6,1.7H-199.7z M-201.7,420.5h9.5v23.3h-9.5V420.5z M-190.8,443
		v-15.6c1.1,3.2,2.8,6.2,5.1,8.7l3.7,4.2c0.7,0.8,1.1,1.7,1.2,2.7L-190.8,443L-190.8,443z M-187.9,403.8h6.1v34.7l-2.9-3.3
		c-1.3-1.4-2.3-3-3.2-4.6L-187.9,403.8L-187.9,403.8z M-184.9,396.5C-184.9,396.5-184.9,396.5-184.9,396.5
		C-184.8,396.5-184.8,396.5-184.9,396.5l2.7,5.9h-5.3L-184.9,396.5z M-197.4,383c0.2-0.2,0.6-0.2,0.8,0c3.6,4,6,9,6.9,14.3h-14.6
		C-203.4,392-201,387-197.4,383z M-204.7,401.9c0-1.1,0.1-2.1,0.2-3.2h15v0c0.1,1.1,0.2,2.1,0.2,3.2v25.5c-1-2.7-1.5-5.6-1.5-8.5h0
		c0-4.8-0.9-9.6-2.7-14.1c-0.6-1.5-1.9-2.4-3.5-2.4s-2.9,0.9-3.5,2.4c-1.7,4.5-2.6,9.3-2.7,14.1h0c0,2.9-0.5,5.8-1.5,8.5
		L-204.7,401.9L-204.7,401.9z M-209.2,396.5C-209.2,396.5-209.2,396.5-209.2,396.5C-209.1,396.5-209.1,396.5-209.2,396.5l2.7,5.9
		h-5.3L-209.2,396.5z M-207.5,460h-3.3l0-0.8h3.2L-207.5,460z M-212.9,457.7l0.6-4.9h6.3l0.6,4.9H-212.9z M-206.1,451.4h-6.1v-3.5
		l6.1,0.9V451.4z M-213.3,446.2v-1.8h10.1v3.3L-213.3,446.2z M-199.1,455.3h-2.7v-4.6c0-1.6,1.1-3,2.7-3.3V455.3z M-196.4,446.6v4.2
		h-1.3v-4.2c0-0.4-0.3-0.7-0.7-0.7c-1.3,0-2.5,0.5-3.4,1.4v-2.2h9.5v2.2c-0.9-0.9-2.1-1.4-3.4-1.4
		C-196,445.9-196.4,446.2-196.4,446.6z M-194.9,455.3v-7.9c1.5,0.3,2.7,1.7,2.7,3.3v4.6H-194.9z M-183.2,460h-3.3l0-0.8h3.2
		L-183.2,460z M-188.5,457.7l0.6-4.9h6.3l0.6,4.9H-188.5z M-181.8,451.4h-6.1v-2.6l6.1-0.9V451.4z"/>
	<path d="M-199.2,415.7c0-1,0.8-1.8,1.8-1.8v-1.4c-1.8,0-3.3,1.5-3.3,3.3L-199.2,415.7L-199.2,415.7z"/>
	<path d="M-194.8,415.7h1.4c0-1.8-1.5-3.3-3.3-3.3v1.4C-195.6,413.9-194.8,414.7-194.8,415.7z"/>
</g>
</svg>
